<svg xmlns="http://www.w3.org/2000/svg" viewBox="0 0 460 130" width="460" height="130">
  <defs>
    <!-- New Bar Gradients -->
    <linearGradient id="barPurple" x1="0%" y1="100%" x2="0%" y2="0%">
      <stop offset="0%" stop-color="#6D28D9"/><stop offset="100%" stop-color="#8B5CF6"/>
    </linearGradient>
    <linearGradient id="barGreen" x1="0%" y1="100%" x2="0%" y2="0%">
      <stop offset="0%" stop-color="#059669"/><stop offset="100%" stop-color="#22C55E"/>
    </linearGradient>
    <linearGradient id="barCoral" x1="0%" y1="100%" x2="0%" y2="0%">
      <stop offset="0%" stop-color="#EA580C"/><stop offset="100%" stop-color="#FB923C"/>
    </linearGradient>

    <!-- Original Theme Gradients & Filters -->
    <linearGradient id="g5card" x1="0%" y1="0%" x2="100%" y2="100%">
      <stop offset="0%" style="stop-color:#1E1B4B"/>
      <stop offset="100%" style="stop-color:#312E81"/>
    </linearGradient>
    <filter id="shadow5a">
      <feDropShadow dx="0" dy="6" stdDeviation="10" flood-color="#1E1B4B" flood-opacity="0.3"/>
    </filter>
    <filter id="shadow5b">
      <feDropShadow dx="0" dy="2" stdDeviation="4" flood-color="#6366F1" flood-opacity="0.2"/>
    </filter>
    <filter id="glow5soft">
      <feGaussianBlur stdDeviation="12"/>
    </filter>
  </defs>

  <!-- Shadow card behind -->
  <rect x="18" y="22" width="100" height="95" rx="18" fill="#312E81" opacity="0.08" transform="translate(4, 4)"/>

  <!-- Main card -->
  <g filter="url(#shadow5a)">
    <rect x="14" y="12" width="100" height="106" rx="18" fill="url(#g5card)"/>
  </g>

  <!-- Inner glow for depth -->
  <circle cx="64" cy="65" r="35" fill="#818CF8" filter="url(#glow5soft)" opacity="0.15"/>

  <!-- ===== INTEGRATED NEW LOGO ICON (Transparent & Scaled) ===== -->
  <g transform="translate(19, 20) scale(2.8)">
    <!-- Bold Base Ring -->
    <circle cx="16" cy="16" r="12" fill="none" stroke="#6366F1" stroke-width="3.5" opacity="0.4"/>

    <!-- Gold Progress Arc -->
    <path d="M4 16 A12 12 0 0 1 28 16" fill="none" stroke="#FFB900" stroke-width="3.5" stroke-linecap="round"/>

    <!-- Bold Upward Arrow -->
    <path d="M28 16 L28 5" stroke="#6366F1" stroke-width="3.5" stroke-linecap="round"/>
    <polygon points="28,2 25,6 31,6" fill="#6366F1"/>

    <!-- Growth Bars -->
    <rect x="7" y="19" width="5" height="7" rx="2" fill="url(#barPurple)"/>
    <rect x="13" y="14" width="5" height="12" rx="2" fill="url(#barCoral)"/>
    <rect x="19" y="9" width="5" height="17" rx="2" fill="url(#barGreen)"/>
  </g>

  <!-- Text Section — GRINDMAP -->
  <g transform="translate(130, 15)" filter="url(#shadow5b)">
    <text x="0" y="55" font-family="-apple-system, BlinkMacSystemFont, 'Segoe UI', Roboto, sans-serif" font-size="44" font-weight="900" fill="#111827">
      GRIND<tspan fill="#6B7280">MAP</tspan>
    </text>

    <!-- Animated Gradient underline -->
    <rect x="0" y="63" width="0" height="4" rx="2" fill="#6366F1">
      <animate attributeName="width" from="0" to="40" dur="0.4s" begin="0.4s" fill="freeze"/>
    </rect>
    <rect x="44" y="63" width="0" height="4" rx="2" fill="#8B5CF6">
      <animate attributeName="width" from="0" to="35" dur="0.35s" begin="0.6s" fill="freeze"/>
    </rect>
    <rect x="83" y="63" width="0" height="4" rx="2" fill="#EC4899">
      <animate attributeName="width" from="0" to="30" dur="0.3s" begin="0.8s" fill="freeze"/>
    </rect>
  </g>

  <!-- Feature cards row -->
  <g transform="translate(137, 90)" opacity="0">
    <animate attributeName="opacity" from="0" to="1" dur="0.5s" begin="1.2s" fill="freeze"/>

    <rect x="0" y="0" width="75" height="28" rx="8" fill="white" stroke="#E5E7EB" stroke-width="0.8"/>
    <circle cx="15" cy="14" r="5" fill="#EEF2FF"/>
    <text x="15" y="17" text-anchor="middle" font-size="7">📋</text>
    <text x="26" y="12" font-family="'Inter', sans-serif" font-size="7" font-weight="700" fill="#1E1B4B">Tasks</text>
    <text x="26" y="22" font-family="'Inter', sans-serif" font-size="6" fill="#9CA3AF">Schedule</text>

    <rect x="82" y="0" width="75" height="28" rx="8" fill="white" stroke="#E5E7EB" stroke-width="0.8"/>
    <circle cx="97" cy="14" r="5" fill="#F5F3FF"/>
    <text x="97" y="17" text-anchor="middle" font-size="7">🎯</text>
    <text x="108" y="12" font-family="'Inter', sans-serif" font-size="7" font-weight="700" fill="#1E1B4B">Focus</text>
    <text x="108" y="22" font-family="'Inter', sans-serif" font-size="6" fill="#9CA3AF">Sessions</text>

    <rect x="164" y="0" width="75" height="28" rx="8" fill="white" stroke="#E5E7EB" stroke-width="0.8"/>
    <circle cx="179" cy="14" r="5" fill="#FDF2F8"/>
    <text x="179" y="17" text-anchor="middle" font-size="7">🏆</text>
    <text x="190" y="12" font-family="'Inter', sans-serif" font-size="7" font-weight="700" fill="#1E1B4B">Goals</text>
    <text x="190" y="22" font-family="'Inter', sans-serif" font-size="6" fill="#9CA3AF">Tracking</text>
  </g>
</svg>


<svg xmlns="http://www.w3.org/2000/svg" viewBox="0 0 460 130" width="460" height="130">
  <defs>
    <linearGradient id="barPurple" x1="0%" y1="100%" x2="0%" y2="0%">
      <stop offset="0%" stop-color="#6D28D9"/>
      <stop offset="100%" stop-color="#8B5CF6"/>
    </linearGradient>
    <linearGradient id="barGreen" x1="0%" y1="100%" x2="0%" y2="0%">
      <stop offset="0%" stop-color="#059669"/>
      <stop offset="100%" stop-color="#22C55E"/>
    </linearGradient>
    <linearGradient id="barCoral" x1="0%" y1="100%" x2="0%" y2="0%">
      <stop offset="0%" stop-color="#EA580C"/>
      <stop offset="100%" stop-color="#FB923C"/>
    </linearGradient>
    <filter id="shadow5b">
      <feDropShadow dx="0" dy="2" stdDeviation="4" flood-color="#6366F1" flood-opacity="0.2"/>
    </filter>
  </defs>

  <!-- Transparent Favicon Icon (replaces the old animated ring) -->
  <g transform="translate(18, 14) scale(2.85)">
    <!-- Bold Base Ring -->
    <circle cx="16" cy="16" r="12" fill="none" stroke="#6366F1" stroke-width="3.5" opacity="0.4"/>
    
    <!-- Gold Progress Arc -->
    <path d="M4 16 A12 12 0 0 1 28 16" fill="none" stroke="#FFB900" stroke-width="3.5" stroke-linecap="round"/>
    
    <!-- Bold Upward Arrow -->
    <path d="M28 16 L28 5" stroke="#6366F1" stroke-width="3.5" stroke-linecap="round"/>
    <polygon points="28,2 25,6 31,6" fill="#6366F1"/>
    
    <!-- Growth Bars -->
    <rect x="7" y="19" width="5" height="7" rx="2" fill="url(#barPurple)"/>
    <rect x="13" y="14" width="5" height="12" rx="2" fill="url(#barCoral)"/>
    <rect x="19" y="9" width="5" height="17" rx="2" fill="url(#barGreen)"/>
  </g>

  <!-- Text Section -->
  <g transform="translate(130, 15)" filter="url(#shadow5b)">
    <text x="0" y="55" font-family="-apple-system, BlinkMacSystemFont, 'Segoe UI', Roboto, sans-serif" font-size="44" font-weight="900" fill="#111827">
      GRIND<tspan fill="#6B7280">MAP</tspan>
    </text>

    <!-- Gradient underline with segments -->
    <rect x="0" y="63" width="0" height="4" rx="2" fill="#6366F1">
      <animate attributeName="width" from="0" to="40" dur="0.4s" begin="0.4s" fill="freeze"/>
    </rect>
    <rect x="44" y="63" width="0" height="4" rx="2" fill="#8B5CF6">
      <animate attributeName="width" from="0" to="35" dur="0.35s" begin="0.6s" fill="freeze"/>
    </rect>
    <rect x="83" y="63" width="0" height="4" rx="2" fill="#EC4899">
      <animate attributeName="width" from="0" to="30" dur="0.3s" begin="0.8s" fill="freeze"/>
    </rect>
  </g>

  <!-- Feature cards row (kept as requested) -->
  <g transform="translate(137, 90)" opacity="0">
    <animate attributeName="opacity" from="0" to="1" dur="0.5s" begin="1.2s" fill="freeze"/>

    <rect x="0" y="0" width="75" height="28" rx="8" fill="white" stroke="#E5E7EB" stroke-width="0.8"/>
    <circle cx="15" cy="14" r="5" fill="#EEF2FF"/>
    <text x="15" y="17" text-anchor="middle" font-size="7">📋</text>
    <text x="26" y="12" font-family="'Inter', sans-serif" font-size="7" font-weight="700" fill="#1E1B4B">Tasks</text>
    <text x="26" y="22" font-family="'Inter', sans-serif" font-size="6" fill="#9CA3AF">Schedule</text>

    <rect x="82" y="0" width="75" height="28" rx="8" fill="white" stroke="#E5E7EB" stroke-width="0.8"/>
    <circle cx="97" cy="14" r="5" fill="#F5F3FF"/>
    <text x="97" y="17" text-anchor="middle" font-size="7">🎯</text>
    <text x="108" y="12" font-family="'Inter', sans-serif" font-size="7" font-weight="700" fill="#1E1B4B">Focus</text>
    <text x="108" y="22" font-family="'Inter', sans-serif" font-size="6" fill="#9CA3AF">Sessions</text>

    <rect x="164" y="0" width="75" height="28" rx="8" fill="white" stroke="#E5E7EB" stroke-width="0.8"/>
    <circle cx="179" cy="14" r="5" fill="#FDF2F8"/>
    <text x="179" y="17" text-anchor="middle" font-size="7">🏆</text>
    <text x="190" y="12" font-family="'Inter', sans-serif" font-size="7" font-weight="700" fill="#1E1B4B">Goals</text>
    <text x="190" y="22" font-family="'Inter', sans-serif" font-size="6" fill="#9CA3AF">Tracking</text>
  </g>
</svg>